<svg width="16" height="23" viewBox="0 0 16 23" fill="none" xmlns="http://www.w3.org/2000/svg">
<path d="M7.97775 22.0109C7.57775 21.5109 7.27775 21.0109 6.97775 20.5109C5.47775 18.2109 3.97775 15.8109 2.77775 13.4109C2.17775 12.2109 1.57775 11.0109 1.27775 9.71086C0.777746 8.01086 0.977746 6.41086 1.67775 5.01086C2.77775 2.81086 4.47775 1.61086 6.87775 1.11086C10.5777 0.41086 14.2777 3.11086 14.9777 6.81086C15.1777 8.01086 14.9777 9.11086 14.5777 10.2109C13.9777 12.0109 13.0777 13.8109 12.0777 15.5109C10.8777 17.6109 9.57775 19.7109 8.17775 21.8109C8.07775 21.8109 8.07775 21.9109 7.97775 22.0109ZM7.97775 20.4109C7.97775 20.3109 8.07775 20.3109 8.07775 20.3109C9.27775 18.5109 10.4777 16.6109 11.5777 14.7109C12.3777 13.3109 13.0777 11.8109 13.6777 10.3109C14.0777 9.21086 14.2777 8.11086 14.0777 7.01086C13.4777 4.41086 11.8777 2.71086 9.27775 2.21086C6.67775 1.51086 4.57775 2.41086 2.97775 4.51086C1.87775 6.11086 1.47775 7.81086 2.17775 9.61086C2.47775 10.5109 2.87775 11.4109 3.27775 12.3109C4.47775 14.8109 5.87775 17.2109 7.37775 19.5109C7.57775 19.8109 7.77775 20.1109 7.97775 20.4109Z" fill="black" stroke="black" stroke-width="0.4"/>
</svg>
