<svg width="14" height="14" viewBox="0 0 14 14" fill="none" xmlns="http://www.w3.org/2000/svg">
<path d="M6.72656 0.0168345C6.28086 0.0851939 5.85156 0.306678 5.52617 0.632069C5.30195 0.859022 5.06406 1.28558 5.01484 1.54808L4.99844 1.64105H3.48359C2.46094 1.64105 1.925 1.65199 1.82656 1.67113C1.35625 1.7723 0.976172 2.15238 0.877734 2.61996C0.861328 2.69926 0.847656 2.99183 0.847656 3.27074C0.847656 3.72191 0.853125 3.78754 0.902344 3.88324C0.987109 4.05004 1.11562 4.10199 1.43281 4.10199H1.69258L1.70625 4.21683C1.71719 4.28246 1.88398 6.27855 2.07812 8.65472C2.275 11.0309 2.44727 13.0243 2.46367 13.0844C2.54023 13.3715 2.78359 13.6805 3.0625 13.8446C3.34141 14.0059 3.18828 14.0004 7 14.0004C10.8309 14.0004 10.6504 14.0086 10.9512 13.8364C11.2164 13.686 11.457 13.3715 11.5363 13.0844C11.55 13.0243 11.725 11.0309 11.9219 8.65472C12.116 6.27855 12.2828 4.28246 12.2937 4.21683L12.3074 4.10199H12.5672C12.8844 4.10199 13.0129 4.05004 13.0977 3.88324C13.1469 3.78754 13.1523 3.72191 13.1523 3.27074C13.1523 2.99183 13.1387 2.69926 13.1223 2.61996C13.0211 2.14965 12.641 1.76957 12.1734 1.67113C12.0777 1.65199 11.5227 1.64105 10.5164 1.64105H9.00156L8.98516 1.54808C8.90039 1.10238 8.48203 0.547303 8.02539 0.279335C7.64531 0.0578502 7.13945 -0.0433217 6.72656 0.0168345ZM7.29258 0.859022C7.50312 0.916444 7.66445 1.00121 7.81758 1.13793C7.95156 1.25824 8.09922 1.46332 8.13477 1.57816L8.15117 1.64105H7H5.84883L5.86523 1.57816C5.90078 1.46605 6.04844 1.25824 6.17695 1.14066C6.4832 0.867225 6.91523 0.75785 7.29258 0.859022ZM12.1133 2.51605C12.2773 2.60082 12.332 2.72933 12.332 3.03558V3.28168H7H1.66797V3.02738C1.6707 2.72933 1.71445 2.62543 1.87578 2.52699L1.98242 2.46137H6.99453C11.9629 2.46137 12.0066 2.46137 12.1133 2.51605ZM11.4652 4.21683C11.4598 4.28246 11.2957 6.25941 11.1016 8.60824C10.7187 13.2375 10.7488 12.9778 10.5738 13.109L10.4973 13.1664H7H3.50273L3.42617 13.109C3.25117 12.9778 3.28125 13.2375 2.89844 8.60824C2.7043 6.25941 2.54023 4.28246 2.53477 4.21683L2.52109 4.10199H7H11.4789L11.4652 4.21683Z" fill="#EC6363"/>
<path d="M4.34219 5.8001C4.2793 5.83291 4.21641 5.8958 4.18359 5.96143C4.12891 6.06533 4.12891 6.11728 4.12891 8.64111C4.12891 11.1649 4.12891 11.2169 4.18359 11.3208C4.24648 11.4438 4.40234 11.5396 4.53906 11.5396C4.67578 11.5396 4.83164 11.4438 4.89453 11.3208C4.94922 11.2169 4.94922 11.1649 4.94922 8.64111C4.94922 6.11728 4.94922 6.06533 4.89453 5.96143C4.79336 5.76182 4.54727 5.69072 4.34219 5.8001Z" fill="#EC6363"/>
<path d="M6.80312 5.8001C6.74023 5.83291 6.67734 5.8958 6.64453 5.96143C6.58984 6.06533 6.58984 6.11728 6.58984 8.64111C6.58984 11.1649 6.58984 11.2169 6.64453 11.3208C6.70742 11.4438 6.86328 11.5396 7 11.5396C7.13672 11.5396 7.29258 11.4438 7.35547 11.3208C7.41016 11.2169 7.41016 11.1649 7.41016 8.64111C7.41016 6.11728 7.41016 6.06533 7.35547 5.96143C7.2543 5.76182 7.0082 5.69072 6.80312 5.8001Z" fill="#EC6363"/>
<path d="M9.26406 5.8001C9.20117 5.83291 9.13828 5.8958 9.10547 5.96143C9.05078 6.06533 9.05078 6.11728 9.05078 8.64111C9.05078 11.1649 9.05078 11.2169 9.10547 11.3208C9.16836 11.4438 9.32422 11.5396 9.46094 11.5396C9.59766 11.5396 9.75352 11.4438 9.81641 11.3208C9.87109 11.2169 9.87109 11.1649 9.87109 8.64111C9.87109 6.11728 9.87109 6.06533 9.81641 5.96143C9.71523 5.76182 9.46914 5.69072 9.26406 5.8001Z" fill="#EC6363"/>
</svg>
