<svg width="27" height="23" viewBox="0 0 27 23" fill="none" xmlns="http://www.w3.org/2000/svg">
<path d="M26.9986 18.0729C26.8932 18.08 26.7878 18.1013 26.6894 18.1013C20.6192 18.1013 14.5559 18.1013 8.48568 18.1084C8.24681 18.1084 8.14845 18.0516 8.09224 17.7961C7.66367 15.8726 6.02667 14.5454 4.09458 14.5525C2.16953 14.5525 0.532523 15.8939 0.0969257 17.8103C-0.415955 20.0957 1.16484 22.4308 3.46227 22.7644C5.66835 23.0838 7.60746 21.7353 8.10629 19.5208C8.14845 19.3292 8.21168 19.2653 8.4084 19.2653C14.5278 19.2724 20.6473 19.2724 26.7667 19.2724C26.844 19.2724 26.9213 19.2866 26.9986 19.3008C26.9986 18.8891 26.9986 18.4846 26.9986 18.0729ZM4.10864 15.7307C5.72456 15.7378 7.03135 17.065 7.02433 18.6975C7.02433 20.3441 5.70348 21.6501 4.05945 21.643C2.46461 21.6359 1.16484 20.3016 1.17187 18.6762C1.17889 17.0438 2.49271 15.7236 4.10864 15.7307Z" fill="black"/>
<path d="M26.9986 3.54404C26.303 3.54404 25.6145 3.55114 24.9189 3.55114C22.6426 3.55114 20.3733 3.55114 18.0969 3.55114C17.9915 3.55114 17.8862 3.55114 17.7667 3.55114C17.5559 2.34454 16.9798 1.37925 15.9822 0.697876C15.2515 0.193941 14.4295 -0.0260859 13.5442 0.00230503C11.7456 0.066184 10.0243 1.36506 9.64493 3.54404C6.44821 3.54404 3.25149 3.54404 0.0336914 3.54404C0.0336914 3.94151 0.0336914 4.31059 0.0336914 4.70806C3.23041 4.70806 6.42713 4.70806 9.62386 4.70806C9.71519 5.02036 9.77842 5.31846 9.88381 5.59527C10.5161 7.29871 12.2164 8.40595 13.9658 8.26399C15.8346 8.11494 17.3522 6.78768 17.7105 4.96358C17.7527 4.75774 17.8229 4.71516 18.0126 4.71516C20.9002 4.72226 23.7878 4.72226 26.6754 4.71516C26.7808 4.71516 26.8862 4.70806 26.9915 4.70806C26.9986 4.32479 26.9986 3.93441 26.9986 3.54404ZM13.7128 1.17342C15.3428 1.18762 16.6356 2.50778 16.6285 4.14025C16.6215 5.77981 15.3077 7.10707 13.6988 7.09288C12.0758 7.08578 10.762 5.73013 10.7761 4.09056C10.7901 2.49359 12.125 1.15923 13.7128 1.17342Z" fill="black"/>
</svg>
