<svg width="20" height="18" viewBox="0 0 20 18" fill="none" xmlns="http://www.w3.org/2000/svg">
<path d="M10.0014 2.6137C10.1389 2.42627 10.2689 2.23396 10.4164 2.05626C11.2763 1.02657 12.3938 0.405833 13.7162 0.135631C14.6511 -0.0566756 15.586 -0.0591098 16.5085 0.223264C17.6759 0.5811 18.5433 1.30894 19.1533 2.3289C19.8132 3.43405 20.0657 4.63657 19.9857 5.90482C19.8932 7.35077 19.3657 8.65796 18.6183 9.89213C17.8259 11.2018 16.8309 12.3532 15.726 13.4194C14.1261 14.9651 12.3563 16.304 10.4564 17.4821C10.1489 17.672 9.87394 17.6818 9.56397 17.487C7.19914 16.0167 5.0293 14.3273 3.17444 12.2753C2.26701 11.2724 1.47707 10.1915 0.882109 8.98172C0.309652 7.81328 -0.0453219 6.59128 0.00467436 5.28409C0.0571705 3.83814 0.499638 2.52364 1.52206 1.44039C2.402 0.508072 3.51191 0.0479975 4.80432 0.0114837C6.29421 -0.0298987 7.63911 0.381491 8.80902 1.29677C9.25399 1.64487 9.62646 2.05869 9.92894 2.53094C9.94394 2.55528 9.95894 2.57962 9.97644 2.60153C9.98143 2.6064 9.99143 2.60884 10.0014 2.6137ZM18.7508 5.41067C18.7433 4.6317 18.5733 3.83083 18.1683 3.08838C17.6884 2.20962 16.9809 1.58645 15.9735 1.34059C14.8661 1.07282 13.7987 1.24078 12.7962 1.73737C11.4713 2.39219 10.6564 3.39754 10.6189 4.90677C10.6164 5.02849 10.5439 5.16724 10.4664 5.26705C10.3114 5.46909 10.0314 5.52751 9.78895 5.43988C9.53397 5.34981 9.38148 5.13316 9.37648 4.84592C9.36398 3.95011 9.02901 3.18332 8.37905 2.55528C7.43912 1.64487 6.28171 1.22861 4.96931 1.22618C3.83939 1.22374 2.90196 1.6473 2.20701 2.52607C1.55206 3.35372 1.28458 4.31525 1.25458 5.34251C1.22208 6.46227 1.53706 7.50656 2.03452 8.50461C2.60948 9.66088 3.38692 10.6808 4.26686 11.6302C5.93174 13.4267 7.85159 14.931 9.92144 16.2626C9.98643 16.304 10.0289 16.2942 10.0889 16.2553C12.1113 14.9505 13.9911 13.4827 15.631 11.7373C16.5259 10.7855 17.3209 9.76068 17.9158 8.60198C18.4208 7.6161 18.7483 6.58154 18.7508 5.41067Z" fill="black" fill-opacity="0.4"/>
</svg>
