<svg width="16" height="18" viewBox="0 0 16 18" fill="none" xmlns="http://www.w3.org/2000/svg">
<path d="M8.63961 9.85882C13.7596 10.4316 16.1596 14.8088 15.9996 17.9997C15.5196 17.9997 15.0396 17.9997 14.4796 17.9997C14.3596 15.8315 13.5196 14.0315 11.7996 12.7225C10.6396 11.8634 9.31961 11.4134 7.83961 11.4543C4.83961 11.5361 1.79961 13.8679 1.55961 17.9997C1.07961 17.9997 0.59961 17.9997 0.11961 17.9997C-0.76039 14.7679 3.11961 10.4316 7.51961 9.85882C6.03961 9.57246 4.91961 8.91791 4.11961 7.73155C3.31961 6.54519 3.07961 5.2361 3.35961 3.84519C3.83961 1.55428 5.95961 -0.122995 8.19961 -0.000268155C10.5196 0.122459 12.4796 1.92246 12.7996 4.13155C13.1196 6.38155 11.9596 9.08155 8.63961 9.85882ZM8.03961 8.22246C9.75961 8.22246 11.2796 6.74973 11.2796 4.99064C11.2796 3.14973 9.83961 1.6361 8.03961 1.6361C6.27961 1.6361 4.83961 3.10882 4.79961 4.86791C4.79961 6.70882 6.23961 8.22246 8.03961 8.22246Z" fill="black"/>
</svg>
