<svg width="16" height="18" viewBox="0 0 16 18" fill="none" xmlns="http://www.w3.org/2000/svg">
<g clip-path="url(#clip0)">
<path d="M8.63967 9.85882C13.7597 10.4316 16.1597 14.8088 15.9997 17.9997C15.5197 17.9997 15.0397 17.9997 14.4797 17.9997C14.3597 15.8315 13.5197 14.0315 11.7997 12.7225C10.6397 11.8634 9.31967 11.4134 7.83967 11.4543C4.83967 11.5361 1.79967 13.8679 1.55967 17.9997C1.07967 17.9997 0.599671 17.9997 0.119671 17.9997C-0.760329 14.7679 3.11967 10.4316 7.51967 9.85882C6.03967 9.57246 4.91967 8.91791 4.11967 7.73155C3.31967 6.54519 3.07967 5.2361 3.35967 3.84519C3.83967 1.55428 5.95967 -0.122995 8.19967 -0.000268155C10.5197 0.122459 12.4797 1.92246 12.7997 4.13155C13.1197 6.38155 11.9597 9.08155 8.63967 9.85882ZM8.03967 8.22246C9.75967 8.22246 11.2797 6.74973 11.2797 4.99064C11.2797 3.14973 9.83967 1.6361 8.03967 1.6361C6.27967 1.6361 4.83967 3.10882 4.79967 4.86791C4.79967 6.70882 6.23967 8.22246 8.03967 8.22246Z" fill="black" fill-opacity="0.7"/>
</g>
<defs>
<clipPath id="clip0">
<rect width="16" height="18" fill="white"/>
</clipPath>
</defs>
</svg>
