<svg width="16" height="22" viewBox="0 0 16 22" fill="none" xmlns="http://www.w3.org/2000/svg">
<path d="M7.97775 21.01C7.57775 20.5338 7.27775 20.0576 6.97775 19.5815C5.47775 17.391 3.97775 15.1053 2.77775 12.8197C2.17775 11.6768 1.57775 10.534 1.27775 9.29592C0.777746 7.6769 0.977746 6.15311 1.67775 4.8198C2.77775 2.7246 4.47775 1.58176 6.87775 1.10558C10.5777 0.438924 14.2777 3.01031 14.9777 6.53406C15.1777 7.6769 14.9777 8.7245 14.5777 9.7721C13.9777 11.4864 13.0777 13.2006 12.0777 14.8196C10.8777 16.8196 9.57775 18.8196 8.17775 20.8195C8.07775 20.8195 8.07775 20.9148 7.97775 21.01ZM7.97775 19.4862C7.97775 19.391 8.07775 19.391 8.07775 19.391C9.27775 17.6767 10.4777 15.8672 11.5777 14.0577C12.3777 12.7244 13.0777 11.2959 13.6777 9.86733C14.0777 8.81973 14.2777 7.77213 14.0777 6.72453C13.4777 4.24838 11.8777 2.62936 9.27775 2.15318C6.67775 1.48653 4.57775 2.34365 2.97775 4.34362C1.87775 5.8674 1.47775 7.48642 2.17775 9.20068C2.47775 10.0578 2.87775 10.9149 3.27775 11.7721C4.47775 14.153 5.87775 16.4387 7.37775 18.6291C7.57775 18.9148 7.77775 19.2005 7.97775 19.4862Z" fill="black" fill-opacity="0.7" stroke="black" stroke-opacity="0.7" stroke-width="0.4"/>
</svg>
