<svg width="14" height="14" fill="none" xmlns="http://www.w3.org/2000/svg"><path d="M6.727.017c-.446.068-.875.29-1.2.615-.225.227-.463.654-.512.916l-.017.093H3.484c-1.023 0-1.559.011-1.657.03-.47.101-.85.481-.95.949-.016.08-.03.372-.03.65 0 .452.006.518.055.613.085.167.214.219.53.219h.26l.014.115c.011.065.178 2.062.372 4.438.197 2.376.37 4.37.386 4.43.076.286.32.595.599.76.278.16.125.155 3.937.155 3.83 0 3.65.009 3.951-.164.265-.15.506-.465.585-.752.014-.06.189-2.053.386-4.43.194-2.375.36-4.372.372-4.437l.013-.115h.26c.317 0 .446-.052.53-.219.05-.095.055-.161.055-.612 0-.28-.013-.572-.03-.651a1.248 1.248 0 00-.949-.949c-.095-.019-.65-.03-1.657-.03H9.002l-.017-.093c-.085-.446-.503-1-.96-1.269A2.124 2.124 0 006.727.017zm.566.842c.21.057.371.142.525.279.134.12.281.325.317.44l.016.063H5.85l.016-.063a1.23 1.23 0 011.427-.72zm4.82 1.657c.164.085.219.213.219.52v.246H1.668v-.255c.003-.298.046-.402.208-.5l.106-.066h5.013c4.968 0 5.012 0 5.118.055zm-.648 1.7c-.005.066-.17 2.043-.363 4.392-.383 4.63-.353 4.37-.528 4.501l-.077.057H3.503l-.077-.057c-.175-.131-.145.129-.528-4.5l-.363-4.392-.014-.115h8.958l-.014.115z" fill="#EC6363"/><path d="M4.342 5.8a.392.392 0 00-.158.161c-.055.104-.055.156-.055 2.68s0 2.576.055 2.68a.432.432 0 00.355.219.432.432 0 00.356-.22c.054-.103.054-.155.054-2.679s0-2.576-.054-2.68a.4.4 0 00-.553-.16zm2.461 0a.392.392 0 00-.158.161c-.055.104-.055.156-.055 2.68s0 2.576.055 2.68A.432.432 0 007 11.54a.432.432 0 00.355-.22c.055-.103.055-.155.055-2.679s0-2.576-.055-2.68a.4.4 0 00-.552-.16zm2.461 0a.392.392 0 00-.159.161c-.054.104-.054.156-.054 2.68s0 2.576.054 2.68a.432.432 0 00.356.219.432.432 0 00.355-.22c.055-.103.055-.155.055-2.679s0-2.576-.055-2.68a.4.4 0 00-.552-.16z" fill="#EC6363"/></svg>