<svg width="27" height="23" fill="none" xmlns="http://www.w3.org/2000/svg"><path d="M26.999 18.073c-.106.007-.211.028-.31.028-6.07 0-12.133 0-18.203.007-.24 0-.338-.056-.394-.312-.428-1.923-2.065-3.25-3.997-3.243-1.925 0-3.562 1.34-3.998 3.257-.513 2.286 1.068 4.62 3.365 4.954 2.206.32 4.145-1.029 4.644-3.243.042-.192.106-.256.302-.256 6.12.007 12.24.007 18.359.007.077 0 .154.015.232.029v-1.228zM4.109 15.73c1.616.007 2.922 1.334 2.915 2.967a2.934 2.934 0 01-2.965 2.945c-1.594-.007-2.894-1.341-2.887-2.967.007-1.632 1.32-2.952 2.937-2.945zm22.89-12.186c-.696 0-1.384.007-2.08.007h-7.152c-.211-1.206-.787-2.172-1.785-2.853-.73-.504-1.552-.724-2.438-.696-1.798.064-3.52 1.363-3.9 3.542H.035v1.164h9.59c.091.312.154.61.26.887.632 1.704 2.332 2.811 4.082 2.669 1.869-.15 3.386-1.476 3.745-3.3.042-.206.112-.249.302-.249 2.887.007 5.775.007 8.662 0 .106 0 .211-.007.316-.007C27 4.325 27 3.934 27 3.544zm-13.286-2.37a2.937 2.937 0 012.915 2.966c-.006 1.64-1.32 2.967-2.93 2.953-1.622-.007-2.936-1.363-2.922-3.002.014-1.597 1.349-2.932 2.937-2.918z" fill="#000"/></svg>