<svg width="20" height="18" fill="none" xmlns="http://www.w3.org/2000/svg"><path d="M10.001 2.614c.138-.188.268-.38.415-.558.86-1.03 1.978-1.65 3.3-1.92.935-.193 1.87-.195 2.793.087 1.167.358 2.034 1.086 2.644 2.106.66 1.105.913 2.308.833 3.576-.093 1.446-.62 2.753-1.368 3.987-.792 1.31-1.787 2.461-2.892 3.527-1.6 1.546-3.37 2.885-5.27 4.063-.307.19-.582.2-.892.005-2.365-1.47-4.535-3.16-6.39-5.212-.907-1.003-1.697-2.084-2.292-3.293C.31 7.813-.045 6.592.005 5.284.057 3.838.5 2.524 1.522 1.44 2.402.508 3.512.048 4.804.011c1.49-.04 2.835.37 4.005 1.286.445.348.817.762 1.12 1.234.015.024.03.049.047.07.005.005.015.008.025.013zm8.75 2.797a4.916 4.916 0 00-.583-2.323c-.48-.878-1.187-1.502-2.194-1.747-1.108-.268-2.175-.1-3.178.396-1.325.655-2.14 1.66-2.177 3.17a.675.675 0 01-.153.36c-.155.202-.435.26-.677.173-.255-.09-.408-.307-.413-.594a3.133 3.133 0 00-.997-2.29c-.94-.911-2.097-1.327-3.41-1.33-1.13-.002-2.067.421-2.762 1.3-.655.828-.922 1.79-.952 2.817-.033 1.12.282 2.164.78 3.162.574 1.156 1.352 2.176 2.232 3.125 1.665 1.797 3.585 3.301 5.654 4.633.065.041.108.031.168-.008 2.022-1.304 3.902-2.772 5.542-4.518.895-.951 1.69-1.976 2.285-3.135.505-.986.832-2.02.835-3.191z" fill="#000" fill-opacity=".4"/></svg>