<svg width="16" height="18" fill="none" xmlns="http://www.w3.org/2000/svg"><path d="M8.64 9.859c5.12.573 7.52 4.95 7.36 8.14h-1.52c-.12-2.167-.96-3.967-2.68-5.276-1.16-.86-2.48-1.31-3.96-1.269-3 .082-6.04 2.414-6.28 6.546H.12c-.88-3.232 3-7.568 7.4-8.141-1.48-.287-2.6-.941-3.4-2.127-.8-1.187-1.04-2.496-.76-3.887C3.84 1.555 5.96-.123 8.2 0c2.32.122 4.28 1.922 4.6 4.132.32 2.25-.84 4.95-4.16 5.727zm-.6-1.637c1.72 0 3.24-1.472 3.24-3.231 0-1.841-1.44-3.355-3.24-3.355-1.76 0-3.2 1.473-3.24 3.232 0 1.84 1.44 3.354 3.24 3.354z" fill="#000"/></svg>