<svg width="16" height="22" fill="none" xmlns="http://www.w3.org/2000/svg"><path d="M7.978 21.01c-.4-.476-.7-.952-1-1.429-1.5-2.19-3-4.476-4.2-6.761-.6-1.143-1.2-2.286-1.5-3.524-.5-1.62-.3-3.143.4-4.476 1.1-2.095 2.8-3.238 5.2-3.714 3.7-.667 7.4 1.904 8.1 5.428.2 1.143 0 2.19-.4 3.238-.6 1.714-1.5 3.429-2.5 5.048-1.2 2-2.5 4-3.9 6-.1 0-.1.095-.2.19zm0-1.524c0-.095.1-.095.1-.095 1.2-1.714 2.4-3.524 3.5-5.333.8-1.334 1.5-2.762 2.1-4.19.4-1.048.6-2.096.4-3.143-.6-2.477-2.2-4.096-4.8-4.572-2.6-.666-4.7.19-6.3 2.19-1.1 1.524-1.5 3.143-.8 4.858.3.857.7 1.714 1.1 2.571 1.2 2.381 2.6 4.667 4.1 6.857l.6.857z" fill="#000" fill-opacity=".7" stroke="#000" stroke-opacity=".7" stroke-width=".4"/></svg>